<svg xmlns="http://www.w3.org/2000/svg" viewBox="0 0 722.41 178.08"><defs><style>.cls-1{fill:#f39ea6;}.cls-2,.cls-8{fill:#fdd5d5;}.cls-2{stroke:#fdd5d5;opacity:0.43;}.cls-2,.cls-3,.cls-4,.cls-6,.cls-7{stroke-miterlimit:10;}.cls-3{fill:none;stroke:#f39ea6;}.cls-4,.cls-7{stroke:#000;}.cls-5,.cls-6{fill:#ed6d78;}.cls-6{stroke:#ed6d78;}.cls-7{stroke-width:0.75px;}</style></defs><title>Recurso 6</title><g id="Capa_2" data-name="Capa 2"><g id="Linea"><path d="M293.9,158.75H283V109.34H233v49.41H222.09V54.46H233V100.6h50V54.46H293.9Z"/><path d="M328.3,64.56H317.66v-15H328.3Zm0,94.19H317.66V78.21H328.3Z"/><path d="M443.52,158.75H432.6v-89l-30.31,58.56h-9.15L363,69.75v89H352.05V54.46h14.34l31.4,61.43,30.85-61.43h14.88Z"/><path d="M477.92,64.56H467.27v-15h10.65Zm0,94.19H467.27V78.21h10.65Z"/><path d="M539.76,86.67h-24v50.65a18.09,18.09,0,0,0,1.85,8.87q1.84,3.28,8,3.28h13.93l.27,9.28H525.15q-10.36,0-15.29-5.18T505,137.32V86.67h-12V78.48h12.14l.55-20.07h10.1V78.48h24Z"/><path d="M574.57,87.63A20.42,20.42,0,0,0,568.49,89a9.77,9.77,0,0,0-4.36,3.55,11.55,11.55,0,0,0-1.71,6.69,10.37,10.37,0,0,0,2.12,6.9,15.92,15.92,0,0,0,5.66,4.16,57.19,57.19,0,0,0,8,2.46l4.58.82c1.59.27,3.16.59,4.71,1q4.63,1,9.21,2.26a28.05,28.05,0,0,1,8.12,3.68,18.17,18.17,0,0,1,5.74,6.28,20.1,20.1,0,0,1,2.18,9.9q0,7.1-2.52,11.46a17.31,17.31,0,0,1-6.76,6.69,28.8,28.8,0,0,1-9.76,3.14,77.25,77.25,0,0,1-11.4.82H553.41v-9.28H581.8q3.29,0,6.9-.34a20.93,20.93,0,0,0,6.55-1.64,12.83,12.83,0,0,0,4.91-3.76A12.46,12.46,0,0,0,600,130a15,15,0,0,0-5.73-4.1q-1.92-.67-3.9-1.23c-1.31-.36-2.75-.72-4.29-1.09s-3.1-.52-4.65-.75-3.09-.48-4.64-.75c-3.19-.55-6.3-1.23-9.35-2a26.19,26.19,0,0,1-8.12-3.68,18.63,18.63,0,0,1-5.74-6.42,21.51,21.51,0,0,1-2.18-10.38,21.8,21.8,0,0,1,2.25-10.44,17.22,17.22,0,0,1,6.08-6.55,25.63,25.63,0,0,1,8.8-3.35,56,56,0,0,1,10.45-1h28.39v9.15H581.26Q578,87.36,574.57,87.63Z"/><path d="M662.48,158.75h-7.1q-27.71,0-27.71-22.79V78.21h10.92v56.38a19.18,19.18,0,0,0,1.37,8,10.58,10.58,0,0,0,3.75,4.51,12.74,12.74,0,0,0,5.39,2,47.1,47.1,0,0,0,6.28.41h7.24a53.31,53.31,0,0,0,6.82-.41,13.5,13.5,0,0,0,5.4-1.78,8.83,8.83,0,0,0,3.48-4.09,18.85,18.85,0,0,0,1.22-7.51V78.21h10.93V136Q690.47,158.75,662.48,158.75Z"/><path d="M712.44,134.32,711.08,55h11.33l-1.36,79.32ZM722,158.75H711.62V147H722Z"/><path class="cls-1" d="M443.46,158.67H432.54v-89l-30.31,58.56h-9.15L362.91,69.67v89H352V54.37h14.34l31.4,61.44,30.85-61.44h14.88Z"/><path class="cls-1" d="M477.86,64.48H467.21v-15h10.65Zm0,94.19H467.21V78.13h10.65Z"/><path class="cls-1" d="M539.7,86.59h-24v50.65a18.21,18.21,0,0,0,1.84,8.87c1.23,2.19,3.9,3.28,8,3.28h13.92l.28,9.28H525.09q-10.38,0-15.29-5.19t-4.91-16.24V86.59h-12V78.4H505l.55-20.07h10.1V78.4h24Z"/><path class="cls-1" d="M574.51,87.55a20.42,20.42,0,0,0-6.08,1.36,9.78,9.78,0,0,0-4.37,3.55,11.55,11.55,0,0,0-1.7,6.69,10.39,10.39,0,0,0,2.11,6.89,15.86,15.86,0,0,0,5.67,4.17,57.19,57.19,0,0,0,8.05,2.46l4.57.82c1.6.27,3.17.59,4.71,1q4.65,1,9.22,2.25a28.46,28.46,0,0,1,8.12,3.69,18.08,18.08,0,0,1,5.74,6.28,20.1,20.1,0,0,1,2.18,9.9q0,7.09-2.53,11.46a17.22,17.22,0,0,1-6.75,6.69,28.87,28.87,0,0,1-9.76,3.14,77.25,77.25,0,0,1-11.4.82H553.35v-9.28h28.39c2.19,0,4.48-.12,6.9-.34a21.21,21.21,0,0,0,6.55-1.64,12.93,12.93,0,0,0,4.91-3.76,12.46,12.46,0,0,0-.2-13.78,15,15,0,0,0-5.73-4.1q-1.92-.67-3.9-1.23c-1.32-.36-2.75-.73-4.3-1.09s-3.09-.52-4.64-.75-3.09-.48-4.64-.75c-3.19-.55-6.3-1.23-9.35-2a26.08,26.08,0,0,1-8.12-3.68,18.63,18.63,0,0,1-5.74-6.42,21.51,21.51,0,0,1-2.18-10.38A21.8,21.8,0,0,1,553.55,89a17.22,17.22,0,0,1,6.08-6.55,25.56,25.56,0,0,1,8.8-3.35,56,56,0,0,1,10.44-1h28.4v9.14H581.19C579,87.27,576.78,87.37,574.51,87.55Z"/><path class="cls-1" d="M662.42,158.67h-7.1q-27.71,0-27.71-22.8V78.13h10.92v56.38a19.18,19.18,0,0,0,1.37,8,10.58,10.58,0,0,0,3.75,4.51,12.88,12.88,0,0,0,5.39,2,47,47,0,0,0,6.28.41h7.24a53.31,53.31,0,0,0,6.82-.41,13.83,13.83,0,0,0,5.39-1.78,8.84,8.84,0,0,0,3.49-4.09,18.85,18.85,0,0,0,1.22-7.51V78.13H690.4v57.74Q690.4,158.67,662.42,158.67Z"/></g><g id="Capa_4" data-name="Capa 4"><path class="cls-2" d="M137.81,130.64c-12.7,10.46-15,30-9.66,34.68s22.44-2,30.18-10.85,19.85-28.06,8.34-33.89C160.35,117.39,146.89,123.16,137.81,130.64Z"/><path class="cls-3" d="M154.94,1.64a4.19,4.19,0,0,0-5.7,0S139,13.38,135.52,18.67C132.31,23.55,108,50.08,102.7,55.2a55.9,55.9,0,0,0-8.83,11.47H83.28A56.06,56.06,0,0,0,74.46,55.2c-5.29-5.12-29.61-31.65-32.82-36.53C38.15,13.38,27.92,1.6,27.92,1.6a4.19,4.19,0,0,0-5.7,0c-40.69,38.56-11.73,97-11.73,97S-16.65,143,40.1,167.24l.09,0c6.67,2.86,13.42,5.54,20.29,7.87l.3.11c18.49,7.05,27.8-4.1,27.8-4.1s-6.18-3.27-4.85-7.24c0,0,.35-1.94,4.85,1.76,4.5-3.7,4.85-1.76,4.85-1.76,1.32,4-4.85,7.24-4.85,7.24s9.31,11.15,27.79,4.1l.3-.11c6.88-2.33,13.62-5,20.3-7.87l.08,0c56.76-24.29,29.62-68.56,29.62-68.56S195.62,40.2,154.94,1.64Z"/><path class="cls-4" d="M93.43,163.94s-.35-1.95-4.85,1.76c-4.5-3.71-4.85-1.76-4.85-1.76-1.33,4,4.85,7.23,4.85,7.23S94.75,167.91,93.43,163.94Z"/><ellipse class="cls-5" cx="72.19" cy="105.71" rx="3.09" ry="5.29" transform="translate(-39.13 42.51) rotate(-26.09)"/><path class="cls-5" d="M69.86,101c-6.69-2.71-34.57-14.4-37.22-24.57-.24-.93-1-3.68.36-4.92,2.5-2.34,9.1,3.72,12.17,1.57,3.46-2.44-.5-13.29-2.47-17.65C38.87,46.92,34.37,45,33,44.44s-3.07-1.16-4.06-.36c-3.13,2.54,6,16.32,4.77,17.12-1.59,1-21.61-19.1-16.42-29.82A6.86,6.86,0,0,1,20.46,28c6.54-3,18.21,7.64,23.82,16.76A43,43,0,0,1,50.4,66.68a12.53,12.53,0,0,0,3,7.89q4.88,5.75,3.73,7.46c-.76,1.13-3.63.57-5.65.17C45,80.9,41,77.59,40.4,78.32c-.14.16-.12.54.39,1.41a10.2,10.2,0,0,0,2.7,2.93c4.26,3.15,18,13.08,29.33,19"/><ellipse class="cls-5" cx="104.97" cy="105.71" rx="5.29" ry="3.09" transform="translate(-36.12 153.5) rotate(-63.91)"/><path class="cls-5" d="M107.3,101c6.69-2.71,34.57-14.4,37.22-24.57.24-.93,1-3.68-.36-4.92-2.51-2.34-9.11,3.72-12.17,1.57-3.46-2.44.5-13.29,2.47-17.65,3.83-8.46,8.33-10.42,9.71-10.94s3.06-1.16,4.06-.36c3.13,2.54-6,16.32-4.77,17.12,1.59,1,21.6-19.1,16.41-29.82A6.78,6.78,0,0,0,156.7,28c-6.54-3-18.21,7.64-23.83,16.76a43,43,0,0,0-6.11,21.89,12.59,12.59,0,0,1-3,7.89Q118.85,80.32,120,82c.76,1.13,3.63.57,5.65.17,6.55-1.3,10.49-4.61,11.11-3.88.15.16.13.54-.39,1.41a10,10,0,0,1-2.69,2.93c-4.26,3.15-18,13.08-29.34,19"/><path class="cls-5" d="M88.58,115c-6.75,0-7.28-21.84-7.28-21.84s3,10.32,7.28,10.32"/><path class="cls-5" d="M88.58,77.61s-9.71.36,0,22.06C98.28,78,88.58,77.61,88.58,77.61Z"/><path class="cls-5" d="M88.58,115c6.75,0,7.28-21.84,7.28-21.84s-3,10.32-7.28,10.32"/><path class="cls-5" d="M67.67,128.79S72,114,44.63,104.11s-22-24.82-22-24.82-15.56,20.34,17,27.41a50.77,50.77,0,0,1,17.73,7.5C62.8,117.88,67.85,122.9,67.67,128.79Z"/><circle class="cls-5" cx="74.15" cy="158.57" r="1.32"/><circle class="cls-5" cx="76.71" cy="163.43" r="0.94"/><ellipse class="cls-5" cx="80.63" cy="116.4" rx="1.72" ry="2.16" transform="translate(-37.4 38.17) rotate(-21.75)"/><path class="cls-5" d="M109.49,128.79s-4.37-14.82,23-24.68,22-24.82,22-24.82,15.56,20.34-17,27.41a50.82,50.82,0,0,0-17.74,7.5C114.36,117.88,109.3,122.9,109.49,128.79Z"/><circle class="cls-5" cx="103" cy="158.57" r="1.32"/><circle class="cls-5" cx="100.45" cy="163.43" r="0.94"/><ellipse class="cls-5" cx="96.53" cy="116.4" rx="2.16" ry="1.72" transform="translate(-47.36 162.91) rotate(-68.25)"/><circle class="cls-5" cx="163.57" cy="124.49" r="1.32"/><circle class="cls-5" cx="160.73" cy="131.37" r="1.17"/><circle class="cls-5" cx="154.77" cy="136.4" r="0.65"/><path class="cls-5" d="M135.37,152.59c12.62-11.25,22.67-11,22.67-11s-5.7,5.3-22.22,11.73A.43.43,0,0,1,135.37,152.59Z"/><path class="cls-5" d="M136.21,158.14c6.84-6.06,19.21-7.11,19.21-7.11s-12,7.61-18.89,8A.48.48,0,0,1,136.21,158.14Z"/><path class="cls-6" d="M62.38,139.78l7.32,12.83s-9.89-6.08-15.36-9.26c0,0,5.65.71,7.68,2,0,0,1.41-2.36-5-5.92Z"/><path class="cls-5" d="M149,120.62s11.58-6,15.9-17.06c0,0-2.44,16.49-7.65,22.25Z"/><path class="cls-6" d="M114.78,139.78l-7.32,12.83s9.88-6.08,15.35-9.26c0,0-5.64.71-7.67,2,0,0-1.41-2.36,5-5.92Z"/><path class="cls-7" d="M113.73,142.29c1.41-5.82,10.67-12.26,16.67-12.88,2.76-.29,6.43-1.71,9.59-3.16a61.19,61.19,0,0,0,8.87-5.13c2.53-1.74,6.69-3.74,8.81-.09,2.23,3.84-6,10.44-11,14a16.09,16.09,0,0,1-8.37,2.92c-2.34.13-5.55.21-9.64.1C128.64,138.06,122.46,137.44,113.73,142.29Z"/><path class="cls-2" d="M39.34,130.64c12.71,10.46,15,30,9.66,34.68s-22.43-2-30.17-10.85S-1,126.41,10.49,120.58C16.81,117.39,30.27,123.16,39.34,130.64Z"/><circle class="cls-5" cx="13.59" cy="124.49" r="1.32"/><circle class="cls-5" cx="16.43" cy="131.37" r="1.17"/><circle class="cls-5" cx="22.38" cy="136.4" r="0.65"/><path class="cls-5" d="M41.79,152.59c-12.62-11.25-22.68-11-22.68-11s5.7,5.3,22.23,11.73A.43.43,0,0,0,41.79,152.59Z"/><path class="cls-5" d="M41,158.14C34.11,152.08,21.74,151,21.74,151s12,7.61,18.89,8A.48.48,0,0,0,41,158.14Z"/><path class="cls-5" d="M28.17,120.62s-11.58-6-15.91-17.06c0,0,2.45,16.49,7.65,22.25Z"/><path class="cls-7" d="M63.43,142.29C62,136.47,52.75,130,46.75,129.41c-2.75-.29-6.42-1.71-9.58-3.16a60.66,60.66,0,0,1-8.87-5.13c-2.54-1.74-6.69-3.74-8.81-.09-2.23,3.84,6,10.44,11,14A16.06,16.06,0,0,0,38.88,138c2.33.13,5.55.21,9.64.1C48.52,138.06,54.7,137.44,63.43,142.29Z"/><path class="cls-8" d="M176.87,51.5s5.1-7.52,7.59-2.82c0,0,4.86-2,3.38,7.32,0,0,8.89,2.74,5,6.45,0,0,3.67,4.17-6,5.48,0,0,.7,8.83-4.33,6.87,0,0-2.84,4.36-7.19-3.91,0,0-8.67,2.74-7.74-2.22,0,0-5.35-1.55,1.63-8,0,0-5.83-6.37-.47-8.29C168.77,52.35,168.66,47.48,176.87,51.5Z"/><path class="cls-3" d="M176.66,51.39s5.31-7.41,7.8-2.71c0,0,4.86-2,3.38,7.32,0,0,8.89,2.74,5,6.45,0,0,3.67,4.17-6,5.48,0,0,.7,8.83-4.33,6.87,0,0-2.84,4.36-7.19-3.91"/><path class="cls-1" d="M178.83,58.31s1.36-2,2-.75c0,0,1.3-.54.9,2,0,0,2.38.73,1.35,1.72,0,0,1,1.11-1.61,1.46,0,0,.19,2.36-1.15,1.84,0,0-.76,1.16-1.93-1.05,0,0-2.31.74-2.07-.59,0,0-1.43-.41.44-2.15,0,0-1.56-1.7-.12-2.21C176.67,58.54,176.64,57.24,178.83,58.31Z"/><path class="cls-8" d="M152.93,82.26s-.18-15.13,7.71-11.08c0,0,4.72-7.4,11.6,6.8,0,0,14.77-4.7,13,4,0,0,9,2.22-3,13.23,0,0,9.36,11.42.61,13.52,0,0,.26,8.69-13.57,1.5,0,0-9.25,12-12.7,4.34,0,0-8.8,3-5.41-12.56,0,0-14-3.16-8.53-10.9C142.66,91.13,137.87,84.57,152.93,82.26Z"/><path class="cls-3" d="M173.37,77.65S187,73.28,185.28,82c0,0,9,2.22-3,13.23,0,0,9.36,11.42.61,13.52,0,0-2.31,9.19-11.26,2"/><path class="cls-1" d="M162.1,89.72s0-4,2.06-3c0,0,1.26-2,3.1,1.82,0,0,4-1.26,3.49,1.07,0,0,2.4.59-.81,3.54,0,0,2.5,3,.16,3.61,0,0,.07,2.32-3.63.4,0,0-2.47,3.21-3.39,1.16,0,0-2.35.79-1.45-3.36,0,0-3.75-.84-2.28-2.91C159.35,92.09,158.07,90.34,162.1,89.72Z"/></g></g></svg>